<svg width="871" height="156" viewBox="0 0 871 156" fill="none" xmlns="http://www.w3.org/2000/svg">
<rect x="74.8828" y="3" width="105.9" height="105.9" transform="rotate(45 74.8828 3)" fill="white"/>
<path d="M107.053 3L98.4834 11.3134L164.863 77.6928L98.4834 144.2L107.053 152.641L182.001 77.8207L107.053 3Z" fill="#F1F1F1"/>
<path d="M239.6 107H229C223.733 107 219.667 105.6 216.8 102.8C213.933 100 212.5 95.9667 212.5 90.7V59C212.5 53.7333 213.933 49.7 216.8 46.9C219.667 44.1 223.733 42.7 229 42.7H239.6C244.8 42.7 248.833 44.1333 251.7 47C254.567 49.8 256 53.8 256 59V62C256 63.4667 255.3 64.2 253.9 64.2H245.4C244 64.2 243.3 63.4667 243.3 62V59.6C243.3 57.4667 242.867 55.9667 242 55.1C241.133 54.1667 239.633 53.7 237.5 53.7H231C228.933 53.7 227.433 54.1667 226.5 55.1C225.633 55.9667 225.2 57.4667 225.2 59.6V90.1C225.2 92.2333 225.633 93.7667 226.5 94.7C227.433 95.5667 228.933 96 231 96H237.5C239.633 96 241.133 95.5667 242 94.7C242.867 93.7667 243.3 92.2333 243.3 90.1V83.8C243.3 83.0667 242.933 82.7 242.2 82.7H236.2C234.8 82.7 234.1 82 234.1 80.6V73.8C234.1 72.4 234.8 71.7 236.2 71.7H253.7C255.233 71.7 256 72.4667 256 74V90.7C256 95.9 254.567 99.9333 251.7 102.8C248.833 105.6 244.8 107 239.6 107ZM302.792 107H270.092C268.692 107 267.992 106.3 267.992 104.9V44.8C267.992 43.4 268.692 42.7 270.092 42.7H302.792C304.126 42.7 304.792 43.4 304.792 44.8V51.6C304.792 53 304.126 53.7 302.792 53.7H281.892C281.092 53.7 280.692 54.0667 280.692 54.8V67.8C280.692 68.5333 281.092 68.9 281.892 68.9H298.992C300.392 68.9 301.092 69.6 301.092 71V77.8C301.092 79.2 300.392 79.9 298.992 79.9H281.892C281.092 79.9 280.692 80.2667 280.692 81V94.9C280.692 95.6333 281.092 96 281.892 96H302.792C304.126 96 304.792 96.7 304.792 98.1V104.9C304.792 106.3 304.126 107 302.792 107ZM314.244 90.6V88.6C314.244 87.2 314.944 86.5 316.344 86.5H324.844C326.244 86.5 326.944 87.2 326.944 88.6V89.4C326.944 91.9333 327.444 93.6667 328.444 94.6C329.444 95.5333 331.277 96 333.944 96H338.644C341.244 96 343.044 95.5 344.044 94.5C345.11 93.5 345.644 91.6333 345.644 88.9V87.7C345.644 85.7667 344.844 84.3 343.244 83.3C341.71 82.2333 339.777 81.6 337.444 81.4C335.11 81.2 332.577 80.8333 329.844 80.3C327.177 79.7 324.677 78.9667 322.344 78.1C320.01 77.1667 318.044 75.4 316.444 72.8C314.91 70.1333 314.144 66.7333 314.144 62.6V59.1C314.144 53.9 315.61 49.8667 318.544 47C321.477 44.1333 325.544 42.7 330.744 42.7H340.744C346.01 42.7 350.11 44.1333 353.044 47C355.977 49.8667 357.444 53.9 357.444 59.1V61C357.444 62.4 356.744 63.1 355.344 63.1H346.844C345.444 63.1 344.744 62.4 344.744 61V60.4C344.744 57.8 344.244 56.0333 343.244 55.1C342.244 54.1667 340.41 53.7 337.744 53.7H333.844C331.11 53.7 329.244 54.2333 328.244 55.3C327.31 56.3 326.844 58.3 326.844 61.3V63.2C326.844 66.3333 329.577 68.1333 335.044 68.6C340.71 69.0667 345.744 70.2 350.144 72C352.477 73 354.41 74.8 355.944 77.4C357.544 79.9333 358.344 83.2 358.344 87.2V90.6C358.344 95.8 356.877 99.8333 353.944 102.7C351.01 105.567 346.944 107 341.744 107H330.844C325.644 107 321.577 105.567 318.644 102.7C315.71 99.8333 314.244 95.8 314.244 90.6ZM389.65 107H381.25C379.783 107 379.05 106.3 379.05 104.9V54.8C379.05 54.0667 378.683 53.7 377.95 53.7H366.55C365.15 53.7 364.45 53 364.45 51.6V44.8C364.45 43.4 365.15 42.7 366.55 42.7H404.35C405.75 42.7 406.45 43.4 406.45 44.8V51.6C406.45 53 405.75 53.7 404.35 53.7H392.95C392.15 53.7 391.75 54.0667 391.75 54.8V104.9C391.75 106.3 391.05 107 389.65 107ZM427.286 44.8V104.9C427.286 106.3 426.586 107 425.186 107H416.686C415.286 107 414.586 106.3 414.586 104.9V44.8C414.586 43.4 415.286 42.7 416.686 42.7H425.186C426.586 42.7 427.286 43.4 427.286 44.8ZM464.046 23.4H473.946C474.613 23.4 475.046 23.6 475.246 24C475.446 24.4 475.313 24.8667 474.846 25.4L466.746 35C466.079 35.8667 465.213 36.3 464.146 36.3H457.546C456.213 36.3 455.879 35.6 456.546 34.2L461.046 25.3C461.713 24.0333 462.713 23.4 464.046 23.4ZM458.246 96H465.346C467.479 96 468.979 95.5667 469.846 94.7C470.779 93.7667 471.246 92.2333 471.246 90.1V59.6C471.246 57.4667 470.779 55.9667 469.846 55.1C468.979 54.1667 467.479 53.7 465.346 53.7H458.246C456.113 53.7 454.613 54.1667 453.746 55.1C452.879 55.9667 452.446 57.4667 452.446 59.6V90.1C452.446 92.2333 452.879 93.7667 453.746 94.7C454.613 95.5667 456.113 96 458.246 96ZM467.446 107H456.246C450.979 107 446.913 105.6 444.046 102.8C441.179 100 439.746 95.9667 439.746 90.7V59C439.746 53.7333 441.179 49.7 444.046 46.9C446.913 44.1 450.979 42.7 456.246 42.7H467.446C472.713 42.7 476.779 44.1 479.646 46.9C482.513 49.7 483.946 53.7333 483.946 59V90.7C483.946 95.9667 482.513 100 479.646 102.8C476.779 105.6 472.713 107 467.446 107ZM506.322 107H498.022C496.622 107 495.922 106.3 495.922 104.9V44.8C495.922 43.4 496.622 42.7 498.022 42.7H505.522C506.922 42.7 507.855 43.1667 508.322 44.1L528.522 82H528.922V44.8C528.922 43.4 529.622 42.7 531.022 42.7H539.322C540.722 42.7 541.422 43.4 541.422 44.8V104.9C541.422 106.3 540.722 107 539.322 107H532.022C530.555 107 529.489 106.333 528.822 105L508.822 67.8H508.422V104.9C508.422 106.3 507.722 107 506.322 107Z" fill="white"/>
<path d="M564.2 92.2V89C564.2 88.0667 564.667 87.6 565.6 87.6H570.1C571.033 87.6 571.5 88.0667 571.5 89V91.6C571.5 97.6 574.467 100.6 580.4 100.6H589.2C595.133 100.6 598.1 97.5333 598.1 91.4V88C598.1 83.2 594.133 80.0667 586.2 78.6C582.867 78 579.533 77.3 576.2 76.5C572.867 75.7 570.033 74.1667 567.7 71.9C565.367 69.5667 564.2 66.4 564.2 62.4V57.5C564.2 52.9 565.5 49.3 568.1 46.7C570.767 44.0333 574.4 42.7 579 42.7H590.1C594.633 42.7 598.233 44.0333 600.9 46.7C603.567 49.3 604.9 52.9 604.9 57.5V60C604.9 61 604.467 61.5 603.6 61.5H599C598.133 61.5 597.7 61 597.7 60V58.2C597.7 52.1333 594.733 49.1 588.8 49.1H580.3C574.367 49.1 571.4 52.2667 571.4 58.6V62.6C571.4 66 573.633 68.3333 578.1 69.6C580.1 70.1333 582.3 70.6333 584.7 71.1C587.1 71.5 589.5 72.0667 591.9 72.8C594.367 73.4667 596.6 74.3333 598.6 75.4C600.6 76.4 602.2 77.9667 603.4 80.1C604.667 82.1667 605.3 84.7 605.3 87.7V92.2C605.3 96.8 603.967 100.433 601.3 103.1C598.633 105.7 595.033 107 590.5 107H579C574.467 107 570.867 105.7 568.2 103.1C565.533 100.433 564.2 96.8 564.2 92.2ZM628.169 44.1V105.6C628.169 106.533 627.702 107 626.769 107H622.269C621.335 107 620.869 106.533 620.869 105.6V44.1C620.869 43.1667 621.335 42.7 622.269 42.7H626.769C627.702 42.7 628.169 43.1667 628.169 44.1ZM689.69 42.7H697.79C698.723 42.7 699.19 43.1667 699.19 44.1V105.6C699.19 106.533 698.723 107 697.79 107H693.39C692.457 107 691.99 106.533 691.99 105.6V52.5H691.59L676.09 91.7C675.69 92.5667 675.09 93 674.29 93H669.49C668.623 93 668.057 92.5667 667.79 91.7L651.99 52.4H651.59V105.6C651.59 106.533 651.157 107 650.29 107H645.89C644.957 107 644.49 106.533 644.49 105.6V44.1C644.49 43.1667 644.957 42.7 645.89 42.7H653.99C654.59 42.7 654.99 42.9667 655.19 43.5L671.59 84.9H672.09L688.49 43.5C688.623 42.9667 689.023 42.7 689.69 42.7ZM720.898 107H716.398C715.464 107 714.998 106.533 714.998 105.6V44.1C714.998 43.1667 715.464 42.7 716.398 42.7H739.798C744.398 42.7 747.998 44.0333 750.598 46.7C753.198 49.3 754.498 52.9 754.498 57.5V68.6C754.498 73.2667 753.198 76.9 750.598 79.5C747.998 82.1 744.398 83.4 739.798 83.4H723.298C722.631 83.4 722.298 83.7 722.298 84.3V105.6C722.298 106.533 721.831 107 720.898 107ZM723.298 76.9H738.798C744.398 76.9 747.198 74.0333 747.198 68.3V57.8C747.198 52 744.398 49.1 738.798 49.1H723.298C722.631 49.1 722.298 49.4 722.298 50V76C722.298 76.6 722.631 76.9 723.298 76.9ZM801.134 107H769.034C768.101 107 767.634 106.533 767.634 105.6V44.1C767.634 43.1667 768.101 42.7 769.034 42.7H773.534C774.468 42.7 774.934 43.1667 774.934 44.1V99.5C774.934 100.1 775.268 100.4 775.934 100.4H801.134C802.068 100.4 802.534 100.9 802.534 101.9V105.6C802.534 106.533 802.068 107 801.134 107ZM845.552 107H814.152C813.218 107 812.752 106.533 812.752 105.6V44.1C812.752 43.1667 813.218 42.7 814.152 42.7H845.552C846.485 42.7 846.952 43.1667 846.952 44.1V47.7C846.952 48.6333 846.485 49.1 845.552 49.1H821.052C820.385 49.1 820.052 49.4 820.052 50V70.2C820.052 70.8 820.385 71.1 821.052 71.1H842.452C843.385 71.1 843.852 71.5667 843.852 72.5V76.1C843.852 77.0333 843.385 77.5 842.452 77.5H821.052C820.385 77.5 820.052 77.8 820.052 78.4V99.7C820.052 100.3 820.385 100.6 821.052 100.6H845.552C846.485 100.6 846.952 101.067 846.952 102V105.6C846.952 106.533 846.485 107 845.552 107Z" fill="white"/>
</svg>
