<svg width="1003" height="237" viewBox="0 0 1003 237" fill="none" xmlns="http://www.w3.org/2000/svg">
<rect x="118.5" width="167.584" height="167.584" transform="rotate(45 118.5 0)" fill="white"/>
<path d="M169.406 0L155.846 13.1558L260.89 118.2L155.846 223.446L169.406 236.804L288.011 118.402L169.406 0Z" fill="#F1F1F1"/>
<path d="M355.6 147H345C339.733 147 335.667 145.6 332.8 142.8C329.933 140 328.5 135.967 328.5 130.7V99C328.5 93.7333 329.933 89.7 332.8 86.9C335.667 84.1 339.733 82.7 345 82.7H355.6C360.8 82.7 364.833 84.1333 367.7 87C370.567 89.8 372 93.8 372 99V102C372 103.467 371.3 104.2 369.9 104.2H361.4C360 104.2 359.3 103.467 359.3 102V99.6C359.3 97.4667 358.867 95.9667 358 95.1C357.133 94.1667 355.633 93.7 353.5 93.7H347C344.933 93.7 343.433 94.1667 342.5 95.1C341.633 95.9667 341.2 97.4667 341.2 99.6V130.1C341.2 132.233 341.633 133.767 342.5 134.7C343.433 135.567 344.933 136 347 136H353.5C355.633 136 357.133 135.567 358 134.7C358.867 133.767 359.3 132.233 359.3 130.1V123.8C359.3 123.067 358.933 122.7 358.2 122.7H352.2C350.8 122.7 350.1 122 350.1 120.6V113.8C350.1 112.4 350.8 111.7 352.2 111.7H369.7C371.233 111.7 372 112.467 372 114V130.7C372 135.9 370.567 139.933 367.7 142.8C364.833 145.6 360.8 147 355.6 147ZM418.792 147H386.092C384.692 147 383.992 146.3 383.992 144.9V84.8C383.992 83.4 384.692 82.7 386.092 82.7H418.792C420.126 82.7 420.792 83.4 420.792 84.8V91.6C420.792 93 420.126 93.7 418.792 93.7H397.892C397.092 93.7 396.692 94.0667 396.692 94.8V107.8C396.692 108.533 397.092 108.9 397.892 108.9H414.992C416.392 108.9 417.092 109.6 417.092 111V117.8C417.092 119.2 416.392 119.9 414.992 119.9H397.892C397.092 119.9 396.692 120.267 396.692 121V134.9C396.692 135.633 397.092 136 397.892 136H418.792C420.126 136 420.792 136.7 420.792 138.1V144.9C420.792 146.3 420.126 147 418.792 147ZM430.244 130.6V128.6C430.244 127.2 430.944 126.5 432.344 126.5H440.844C442.244 126.5 442.944 127.2 442.944 128.6V129.4C442.944 131.933 443.444 133.667 444.444 134.6C445.444 135.533 447.277 136 449.944 136H454.644C457.244 136 459.044 135.5 460.044 134.5C461.11 133.5 461.644 131.633 461.644 128.9V127.7C461.644 125.767 460.844 124.3 459.244 123.3C457.71 122.233 455.777 121.6 453.444 121.4C451.11 121.2 448.577 120.833 445.844 120.3C443.177 119.7 440.677 118.967 438.344 118.1C436.01 117.167 434.044 115.4 432.444 112.8C430.91 110.133 430.144 106.733 430.144 102.6V99.1C430.144 93.9 431.61 89.8667 434.544 87C437.477 84.1333 441.544 82.7 446.744 82.7H456.744C462.01 82.7 466.11 84.1333 469.044 87C471.977 89.8667 473.444 93.9 473.444 99.1V101C473.444 102.4 472.744 103.1 471.344 103.1H462.844C461.444 103.1 460.744 102.4 460.744 101V100.4C460.744 97.8 460.244 96.0333 459.244 95.1C458.244 94.1667 456.41 93.7 453.744 93.7H449.844C447.11 93.7 445.244 94.2333 444.244 95.3C443.31 96.3 442.844 98.3 442.844 101.3V103.2C442.844 106.333 445.577 108.133 451.044 108.6C456.71 109.067 461.744 110.2 466.144 112C468.477 113 470.41 114.8 471.944 117.4C473.544 119.933 474.344 123.2 474.344 127.2V130.6C474.344 135.8 472.877 139.833 469.944 142.7C467.01 145.567 462.944 147 457.744 147H446.844C441.644 147 437.577 145.567 434.644 142.7C431.71 139.833 430.244 135.8 430.244 130.6ZM505.65 147H497.25C495.783 147 495.05 146.3 495.05 144.9V94.8C495.05 94.0667 494.683 93.7 493.95 93.7H482.55C481.15 93.7 480.45 93 480.45 91.6V84.8C480.45 83.4 481.15 82.7 482.55 82.7H520.35C521.75 82.7 522.45 83.4 522.45 84.8V91.6C522.45 93 521.75 93.7 520.35 93.7H508.95C508.15 93.7 507.75 94.0667 507.75 94.8V144.9C507.75 146.3 507.05 147 505.65 147ZM543.286 84.8V144.9C543.286 146.3 542.586 147 541.186 147H532.686C531.286 147 530.586 146.3 530.586 144.9V84.8C530.586 83.4 531.286 82.7 532.686 82.7H541.186C542.586 82.7 543.286 83.4 543.286 84.8ZM580.046 63.4H589.946C590.613 63.4 591.046 63.6 591.246 64C591.446 64.4 591.313 64.8667 590.846 65.4L582.746 75C582.079 75.8667 581.213 76.3 580.146 76.3H573.546C572.213 76.3 571.879 75.6 572.546 74.2L577.046 65.3C577.713 64.0333 578.713 63.4 580.046 63.4ZM574.246 136H581.346C583.479 136 584.979 135.567 585.846 134.7C586.779 133.767 587.246 132.233 587.246 130.1V99.6C587.246 97.4667 586.779 95.9667 585.846 95.1C584.979 94.1667 583.479 93.7 581.346 93.7H574.246C572.113 93.7 570.613 94.1667 569.746 95.1C568.879 95.9667 568.446 97.4667 568.446 99.6V130.1C568.446 132.233 568.879 133.767 569.746 134.7C570.613 135.567 572.113 136 574.246 136ZM583.446 147H572.246C566.979 147 562.913 145.6 560.046 142.8C557.179 140 555.746 135.967 555.746 130.7V99C555.746 93.7333 557.179 89.7 560.046 86.9C562.913 84.1 566.979 82.7 572.246 82.7H583.446C588.713 82.7 592.779 84.1 595.646 86.9C598.513 89.7 599.946 93.7333 599.946 99V130.7C599.946 135.967 598.513 140 595.646 142.8C592.779 145.6 588.713 147 583.446 147ZM622.322 147H614.022C612.622 147 611.922 146.3 611.922 144.9V84.8C611.922 83.4 612.622 82.7 614.022 82.7H621.522C622.922 82.7 623.855 83.1667 624.322 84.1L644.522 122H644.922V84.8C644.922 83.4 645.622 82.7 647.022 82.7H655.322C656.722 82.7 657.422 83.4 657.422 84.8V144.9C657.422 146.3 656.722 147 655.322 147H648.022C646.555 147 645.489 146.333 644.822 145L624.822 107.8H624.422V144.9C624.422 146.3 623.722 147 622.322 147Z" fill="white"/>
<path d="M696.2 132.2V129C696.2 128.067 696.667 127.6 697.6 127.6H702.1C703.033 127.6 703.5 128.067 703.5 129V131.6C703.5 137.6 706.467 140.6 712.4 140.6H721.2C727.133 140.6 730.1 137.533 730.1 131.4V128C730.1 123.2 726.133 120.067 718.2 118.6C714.867 118 711.533 117.3 708.2 116.5C704.867 115.7 702.033 114.167 699.7 111.9C697.367 109.567 696.2 106.4 696.2 102.4V97.5C696.2 92.9 697.5 89.3 700.1 86.7C702.767 84.0333 706.4 82.7 711 82.7H722.1C726.633 82.7 730.233 84.0333 732.9 86.7C735.567 89.3 736.9 92.9 736.9 97.5V100C736.9 101 736.467 101.5 735.6 101.5H731C730.133 101.5 729.7 101 729.7 100V98.2C729.7 92.1333 726.733 89.1 720.8 89.1H712.3C706.367 89.1 703.4 92.2667 703.4 98.6V102.6C703.4 106 705.633 108.333 710.1 109.6C712.1 110.133 714.3 110.633 716.7 111.1C719.1 111.5 721.5 112.067 723.9 112.8C726.367 113.467 728.6 114.333 730.6 115.4C732.6 116.4 734.2 117.967 735.4 120.1C736.667 122.167 737.3 124.7 737.3 127.7V132.2C737.3 136.8 735.967 140.433 733.3 143.1C730.633 145.7 727.033 147 722.5 147H711C706.467 147 702.867 145.7 700.2 143.1C697.533 140.433 696.2 136.8 696.2 132.2ZM760.169 84.1V145.6C760.169 146.533 759.702 147 758.769 147H754.269C753.335 147 752.869 146.533 752.869 145.6V84.1C752.869 83.1667 753.335 82.7 754.269 82.7H758.769C759.702 82.7 760.169 83.1667 760.169 84.1ZM821.69 82.7H829.79C830.723 82.7 831.19 83.1667 831.19 84.1V145.6C831.19 146.533 830.723 147 829.79 147H825.39C824.457 147 823.99 146.533 823.99 145.6V92.5H823.59L808.09 131.7C807.69 132.567 807.09 133 806.29 133H801.49C800.623 133 800.057 132.567 799.79 131.7L783.99 92.4H783.59V145.6C783.59 146.533 783.157 147 782.29 147H777.89C776.957 147 776.49 146.533 776.49 145.6V84.1C776.49 83.1667 776.957 82.7 777.89 82.7H785.99C786.59 82.7 786.99 82.9667 787.19 83.5L803.59 124.9H804.09L820.49 83.5C820.623 82.9667 821.023 82.7 821.69 82.7ZM852.898 147H848.398C847.464 147 846.998 146.533 846.998 145.6V84.1C846.998 83.1667 847.464 82.7 848.398 82.7H871.798C876.398 82.7 879.998 84.0333 882.598 86.7C885.198 89.3 886.498 92.9 886.498 97.5V108.6C886.498 113.267 885.198 116.9 882.598 119.5C879.998 122.1 876.398 123.4 871.798 123.4H855.298C854.631 123.4 854.298 123.7 854.298 124.3V145.6C854.298 146.533 853.831 147 852.898 147ZM855.298 116.9H870.798C876.398 116.9 879.198 114.033 879.198 108.3V97.8C879.198 92 876.398 89.1 870.798 89.1H855.298C854.631 89.1 854.298 89.4 854.298 90V116C854.298 116.6 854.631 116.9 855.298 116.9ZM933.134 147H901.034C900.101 147 899.634 146.533 899.634 145.6V84.1C899.634 83.1667 900.101 82.7 901.034 82.7H905.534C906.468 82.7 906.934 83.1667 906.934 84.1V139.5C906.934 140.1 907.268 140.4 907.934 140.4H933.134C934.068 140.4 934.534 140.9 934.534 141.9V145.6C934.534 146.533 934.068 147 933.134 147ZM977.552 147H946.152C945.218 147 944.752 146.533 944.752 145.6V84.1C944.752 83.1667 945.218 82.7 946.152 82.7H977.552C978.485 82.7 978.952 83.1667 978.952 84.1V87.7C978.952 88.6333 978.485 89.1 977.552 89.1H953.052C952.385 89.1 952.052 89.4 952.052 90V110.2C952.052 110.8 952.385 111.1 953.052 111.1H974.452C975.385 111.1 975.852 111.567 975.852 112.5V116.1C975.852 117.033 975.385 117.5 974.452 117.5H953.052C952.385 117.5 952.052 117.8 952.052 118.4V139.7C952.052 140.3 952.385 140.6 953.052 140.6H977.552C978.485 140.6 978.952 141.067 978.952 142V145.6C978.952 146.533 978.485 147 977.552 147Z" fill="white"/>
</svg>
